<?xml version="1.0" encoding="UTF-8"?>
<svg id="Layer_2_copy_2" data-name="Layer 2 copy 2" xmlns="http://www.w3.org/2000/svg" viewBox="0 0 128 128">
  <defs>
    <style>
      .cls-1 {
        fill: #92cd93;
      }

      .cls-2 {
        fill: #42b54d;
      }
    </style>
  </defs>
  <polygon class="cls-2" points="103.76 30.02 89.75 38.08 80.94 43.15 76.7 45.6 66.95 39.99 62.68 37.53 66.95 35.07 75.74 30.02 66.94 24.94 64.36 23.45 60.2 25.84 51.29 30.98 46.23 33.89 37.3 39.04 46.24 44.19 48.68 45.6 60.23 52.25 62.69 53.67 66.97 56.13 76.64 61.7 66.98 67.28 64.16 68.9 60.24 66.65 50.2 60.86 46.25 58.59 36.19 52.8 24.8 46.24 21.65 44.42 10.8 38.16 21.64 31.92 23.28 30.97 37.29 22.91 46.21 17.76 50.35 15.38 60.18 9.72 64.35 7.32 66.92 8.8 78.35 15.39 80.91 16.86 89.74 21.94 103.76 30.02"/>
  <polygon class="cls-1" points="120.33 86.86 120.33 89.98 110.54 95.61 106.36 98.03 106.36 93.2 106.34 78.81 106.33 67.72 96.7 73.26 84.22 80.46 80.97 82.32 80.97 82.33 80.98 86.44 80.98 86.45 81 102.6 81.01 112.63 67.04 120.68 67.01 94.54 67 90.38 66.99 78.39 66.98 74.25 70.21 72.39 80.96 66.2 80.96 66.19 82.7 65.2 96.7 57.13 106.31 51.6 109.76 49.61 120.29 43.54 120.29 55.67 120.3 59.67 120.31 70.73 120.33 86.86"/>
  <polygon class="cls-1" points="60.29 119.1 46.31 111.05 46.3 102.3 46.3 102.3 46.28 86.18 46.28 82.6 43.33 80.9 29.37 72.86 21.68 68.43 21.69 77.29 21.7 93.36 21.7 96.87 18.65 95.11 18.65 95.11 7.71 88.81 7.71 85.34 7.7 69.21 7.69 60.36 7.68 56.1 7.67 44.22 17.98 50.16 21.66 52.27 29.37 56.72 43.39 64.79 46.26 66.45 57.34 72.83 60.25 74.51 60.25 78.13 60.27 90.65 60.27 94.25 60.29 119.1"/>
</svg>